<svg xmlns="http://www.w3.org/2000/svg" width="525.309" height="117">
  <g fill-rule="evenodd" clip-rule="evenodd">
    <path fill="#0167B1" d="M34.667 110.873c-1.686-.256-3.378-.473-5.055-.773-13.008-2.344-23.76-13.12-26.08-26.205-.347-1.954-.53-3.96-.54-5.945-.053-10.316.086-20.634-.075-30.947-.074-4.697 3.683-8.47 8.393-8.308 2.51.086 5.03-.046 7.545-.08-.037.436-.106.87-.106 1.307-.01 12.636-.01 25.27 0 37.907 0 .91.1 1.83.23 2.73 1.23 8.03 8.53 14.3 16.63 14.31h22.56c.6 0 1.2.02 1.79-.06 8.53-1.2 14.92-8.32 15.04-16.94.1-7.48.05-14.96 0-22.44-.02-2.84-.79-5.54-2.24-7.99-3.45-5.81-8.62-8.8-15.33-8.85-12.44-.09-24.88-.03-37.31-.02-.44 0-.88.03-1.32.05.01-2.6.03-5.2.04-7.79.01-2.6 0-5.19 0-7.99H58c13.475 0 25.79 8.5 30.604 21.12 1.45 3.8 2.195 7.72 2.184 11.8-.02 7.35.1 14.71-.03 22.06-.22 12.41-5.798 21.85-16.316 28.33-4.308 2.654-9.063 4.1-14.14 4.41-.468.03-.93.173-1.394.27-8.083-.006-16.162-.006-24.243-.006zm-22.8-104.16c.25.103.49.24.75.31 3.575.927 5.913 3.91 5.924 7.583.01 2.58.01 5.162.01 7.784-3.29 0-6.47.32-9.55-.09-3.12-.413-5.06-2.65-5.93-5.72-.07-.257-.2-.5-.31-.75v-2.16c.11-.29.23-.578.32-.875.85-3.007 2.77-4.927 5.77-5.77.3-.084.59-.208.88-.313h2.16z"/>
    <path d="M379.232 77.727c.23-6.063 1.314-11.87 4.188-17.238 3.864-7.22 9.84-11.91 17.683-14.07 7.745-2.14 15.516-1.99 23.107.76 8.345 3.02 14.09 8.82 17.094 17.15 3.143 8.71 3.23 17.58.158 26.31-3.71 10.54-11.375 16.74-22.227 18.96-7.027 1.43-14.027 1.09-20.763-1.51-10.076-3.89-15.9-11.45-18.146-21.85-.6-2.8-.74-5.69-1.094-8.54zm47.345-.564c-.12-1.274-.207-3.156-.487-5.01-.576-3.81-1.834-7.328-4.47-10.28-4.984-5.587-18.726-6.4-23.083 4.46-2.226 5.548-2.395 11.286-1.572 17.1.487 3.447 1.582 6.695 3.846 9.422 3.11 3.742 7.26 4.875 11.93 4.583 4.78-.3 8.46-2.43 10.87-6.608 2.33-4.045 2.82-8.517 2.98-13.667zM133.44 46.798h16.155v8.532c.306-.208.45-.258.52-.36 5.036-7.326 12.126-10.305 20.838-9.882 4.536.22 8.9 1.046 12.698 3.726 4.07 2.87 6.09 7.04 6.96 11.768.52 2.816.85 5.707.87 8.567.09 12.71.04 25.43.04 38.15v1.35h-17.05v-1.54c0-11.12.05-22.24-.03-33.36-.02-2.54-.28-5.12-.83-7.6-1.12-5.01-4.24-7.44-9.36-7.63-2.76-.11-5.44.19-7.87 1.62-3.28 1.92-4.64 5.09-5.27 8.6-.37 2.11-.59 4.28-.6 6.43-.06 10.64-.03 21.27-.03 31.91v1.51h-17.03V46.8zm313.677.012h16.164v8.697c.44-.522.64-.738.81-.976 4.47-6.22 10.56-9.4 18.19-9.41 2.86 0 5.77.25 8.55.87 7.35 1.64 11.7 6.48 13.23 13.72.69 3.26 1.07 6.65 1.1 9.98.13 12.6.05 25.2.05 37.79v1.21h-17.12v-1.39c0-11.59.07-23.19-.05-34.79-.03-2.59-.5-5.25-1.22-7.75-1.07-3.7-3.83-5.79-7.65-6.07-2.19-.15-4.49.03-6.64.5-3.61.81-5.77 3.39-6.99 6.78-1.17 3.25-1.41 6.64-1.42 10.04-.04 10.4-.01 20.8-.01 31.2v1.48h-16.95V46.81zm-211.81.035c.258-.04.408-.084.558-.085 5.436-.003 10.872-.003 16.483-.003v1.44c.014 11.715-.014 23.432.078 35.146.017 2.054.34 4.155.86 6.146 1.278 4.87 4.17 7.18 9.194 7.37 1.734.07 3.53-.13 5.222-.52 4.267-1 6.713-4.01 7.6-8.09.666-3.06 1-6.24 1.038-9.37.125-10.2.047-20.39.047-30.59v-1.47h16.956v61.81h-16.07V99.8c-.417.5-.597.688-.745.898-4.602 6.565-11.017 9.64-18.93 9.675-4.265.02-8.457-.547-12.33-2.516-5.187-2.637-7.864-7.136-8.948-12.632-.562-2.846-.945-5.775-.968-8.672-.102-12.954-.044-25.91-.044-38.866v-.845zm117.71 17.913h-16.02c-.054-.078-.126-.135-.136-.2-.66-4.55-2.86-6.88-7.41-7.705-3.3-.6-6.59-.646-9.82.442-1.99.67-3.4 1.887-3.7 4.107-.31 2.34.7 4.025 2.61 5.243 2.58 1.643 5.53 2.234 8.43 2.962 5.38 1.35 10.79 2.58 16.11 4.14 3.33.973 6.27 2.823 8.54 5.548 3.28 3.95 3.64 8.58 2.88 13.39-1.17 7.507-5.64 12.474-12.58 15.02-10.43 3.825-21.03 3.84-31.4-.22-8.17-3.197-12.5-9.47-13.1-18.264-.01-.11-.01-.23 0-.35.01-.07.06-.14.12-.28h15.9c.29 1.24.466 2.43.847 3.56.924 2.72 2.9 4.49 5.49 5.51 4.248 1.69 8.57 1.77 12.886.22 1.603-.58 2.99-1.52 3.963-2.97 2.026-3 1.476-6.54-1.68-8.27-2.457-1.34-5.173-2.31-7.88-3.07-4.57-1.28-9.26-2.13-13.824-3.43-2.545-.73-5.05-1.79-7.37-3.08-5.144-2.86-7.39-7.44-7.02-13.28.53-8.4 4.59-14 12.584-16.56 9.75-3.11 19.62-3.21 29.29.38 7.59 2.82 11.87 9.13 12.34 17.18zm-160-6.604v-11.37h10.13c0-1.93-.162-3.77.04-5.57.262-2.322.495-4.732 1.3-6.895 2.436-6.54 7.633-9.65 14.247-10.81 4.668-.82 9.32-.16 14.075.08v12.68c-1.38-.09-2.79-.23-4.2-.25-1.36-.02-2.73-.02-4.06.18-2.35.36-3.66 1.73-4.11 4.06-.13.66-.23 1.34-.25 2.02-.04 1.43-.01 2.86-.01 4.4h11.66v11.39h-11.59v50.53h-17.06V58.15h-10.18zm-68.073 50.518H107.99V46.84h16.954v61.832zm233.292-.062V46.828h16.93v61.784h-16.93zM107.97 39.08V28.196h16.975V39.08H107.97zm267.195.025H358.27v-10.92h16.895v10.92zM514.008 22.19c4.62.018 8.3 3.7 8.3 8.31.003 4.625-3.782 8.396-8.403 8.372-4.56-.024-8.304-3.785-8.316-8.35-.02-4.615 3.75-8.348 8.41-8.33zm-.08 15.242c3.798.002 6.964-3.134 6.98-6.914.016-3.772-3.143-6.94-6.944-6.965-3.768-.025-6.968 3.157-6.972 6.933-.004 3.794 3.142 6.944 6.937 6.946zM42.788 50.638H27.24c.334-1.537.613-2.977.984-4.393.07-.267.497-.45.78-.644.082-.05.234-.01.354-.01h36.008c-.34 1.59-.622 3.1-1.025 4.57-.06.24-.67.46-1.03.46-4.44.03-8.87.02-13.31.02h-1.34l-3.9 17c-1.58 6.89-3.17 13.77-4.71 20.67-.18.81-.49 1.02-1.26 1-1.55-.05-3.11-.01-4.83-.01l8.84-38.63z"/>
    <path d="M512.71 31.564v3.582h-1.8V25.74c1.6.08 3.238.017 4.81.31.6.112 1.306.963 1.503 1.617.34 1.12.064 2.243-1.218 2.823 1.602 1.266.885 3.135 1.593 4.685h-2.013c-.08-.592-.163-1.138-.226-1.686-.24-2.1-.3-2.15-2.65-1.93zm-.008-1.27c1.027-.41 1.847-.617 2.496-1.066.218-.15.168-1.246-.043-1.354-.71-.362-1.55-.474-2.453-.71v3.13z"/>
  </g>
</svg>
